# xmcd
#
# Track frame offsets: 
#        150
#        8230
#        16903
#        35168
#        54508
#        75523
#        92998
#        111533
#        128818
#        143983
#        145983
#
# Disc length: 2172 seconds
#
# Revision: 0
# Processed by: cddbd v1.5.2PL0 Copyright (c) Steve Scherf et al.
# Submitted via: ExactAudioCopy v0.99pb5
#
DISCID=98087a0b
DTITLE=E-Moneybags - In E-Moneybags We Trust
DYEAR=1999
DGENRE=Rap
TTITLE0=Intro feat. Capone
TTITLE1=Regulate
TTITLE2=Ain't Got A Clue
TTITLE3=All They Do Is This feat. Show Boyz
TTITLE4=What You Need feat. Live Squad
TTITLE5=Want It feat. Nas and Horse
TTITLE6=How Cool feat. Nature
TTITLE7=Thugged Out feat. Noreaga, Musaliny-N-Maze and Diesel
TTITLE8=Friend Of Ours feat. Kool G Rap and Nature
TTITLE9=Esco (Intro)
TTITLE10=Thugs Calm Down feat. Nas and Noreaga
EXTD=
EXTT0=
EXTT1=
EXTT2=
EXTT3=
EXTT4=
EXTT5=
EXTT6=
EXTT7=
EXTT8=
EXTT9=
EXTT10=
PLAYORDER=
